<?xml version="1.0" encoding="UTF-8"?>
<svg id="Layer_1" data-name="Layer 1" xmlns="http://www.w3.org/2000/svg" xmlns:xlink="http://www.w3.org/1999/xlink" viewBox="0 0 941.75 473.45">
  <defs>
    <filter id="outer-glow-1" filterUnits="userSpaceOnUse">
      <feOffset dx="0" dy="0"/>
      <feGaussianBlur result="blur" stdDeviation="5"/>
      <feFlood flood-color="#fff" flood-opacity=".75"/>
      <feComposite in2="blur" operator="in"/>
      <feComposite in="SourceGraphic"/>
    </filter>
  </defs>
  <rect x=".5" y="156.85" width="940.75" height="316.1" rx="22.54" ry="22.54" style="fill: gray; stroke: #000; stroke-miterlimit: 10;"/>
  <g>
    <g>
      <path d="M569.7,246.15c-.55-.62-.81-1.76-1.09-2.98-.28-1.22-.59-2.52-1.59-3.37h0c-.36-.32-.78-.57-1.23-.75,1.39-4.12.85-8.22-.55-11.92-1.72-4.55-4.72-8.51-7.02-11.22-2.56-3.24-5.07-6.31-5.03-10.85.08-6.93.76-19.77-11.43-19.79-.5,0-1.01.02-1.55.07-13.62,1.09-10.01,15.49-10.22,20.3-.25,3.53-.96,6.3-3.39,9.75-2.85,3.39-6.85,8.86-8.75,14.57-.9,2.69-1.33,5.44-.93,8.03-.13.11-.24.23-.35.35-.83.89-1.45,1.97-2.14,2.7-.64.64-1.56.88-2.56,1.24-1.01.36-2.12.9-2.78,2.18h0c-.3.58-.44,1.23-.43,1.88,0,.6.09,1.2.18,1.78.19,1.22.38,2.36.13,3.13-.8,2.18-.9,3.69-.34,4.78.56,1.1,1.71,1.58,3.02,1.85,2.61.55,6.16.41,8.95,1.89l.24-.45-.24.45c2.98,1.56,6.02,2.12,8.43,1.57,1.71-.34,3.16-1.47,3.9-3.05,1.89-.01,3.96-.81,7.28-.99,2.25-.18,5.07.8,8.3.62.08.35.21.69.38,1.01h0c1.25,2.52,3.59,3.66,6.08,3.47,2.49-.2,5.13-1.66,7.27-4.21l-.39-.33.39.33c2.04-2.48,5.43-3.5,7.67-4.85,1.12-.68,2.03-1.52,2.1-2.76.07-1.23-.65-2.6-2.31-4.45h0Z" style="fill: #202020;"/>
      <path d="M570.99,250.54c-.04.76-.59,1.33-1.6,1.93-2.03,1.23-5.63,2.29-7.92,5.07-2,2.38-4.43,3.67-6.57,3.85-2.14.17-3.98-.72-5.08-2.91h0c-.68-1.3-.4-3.33.17-5.46s1.39-4.34,1.5-6.12h0c.11-2.3.24-4.29.63-5.83.39-1.55.99-2.59,2.06-3.18.05-.03.1-.05.15-.08.12,1.98,1.11,4.01,2.84,4.44,1.9.5,4.63-1.13,5.78-2.46l.67-.02c1.02-.03,1.86.03,2.73.79h0c.67.57.99,1.64,1.27,2.83.28,1.2.5,2.5,1.32,3.43,1.59,1.77,2.1,2.95,2.05,3.71h0ZM532.43,256.15v.02c-.19,2.4-1.55,3.71-3.62,4.19-2.08.48-4.91,0-7.72-1.47-3.12-1.66-6.83-1.49-9.21-1.99-1.19-.25-1.97-.62-2.33-1.31-.35-.7-.36-1.91.39-3.98h0s0-.02,0-.02c.38-1.15.1-2.42-.08-3.61-.18-1.18-.27-2.27.13-3.02h0c.52-1.01,1.28-1.36,2.23-1.7.94-.34,2.06-.61,2.94-1.49h0s0,0,0,0c.82-.87,1.44-1.95,2.15-2.72.61-.65,1.22-1.08,2.13-1.08h.03c.17,0,.34.02.51.04,1.22.18,2.27,1.03,3.29,2.41l2.94,5.36h0c.78,1.64,2.44,3.44,3.84,5.28,1.4,1.84,2.49,3.68,2.35,5.09h0Z" style="fill: #f8bf11;"/>
      <path d="M547.11,206.12c-.24-.46-.72-.91-1.55-1.24-1.71-.73-2.45-.78-3.41-1.4-1.55-1-2.83-1.35-3.9-1.35-.51,0-1.02.09-1.5.26-1.3.44-2.17,1.38-2.71,1.89-.11.1-.24.19-.57.44-.33.24-.83.61-1.55,1.15-.65.48-.85,1.11-.63,1.83s.92,1.57,2.21,2.3h0c.8.47,1.35,1.11,1.98,1.61.32.26.67.48,1.04.65.4.17.86.29,1.44.32,1.37.08,2.38-.33,3.26-.83.88-.51,1.64-1.13,2.5-1.41h0c1.77-.55,3.03-1.66,3.43-2.72.2-.48.19-1.02-.04-1.49h0Z" style="fill: #d6a312;"/>
      <path d="M542.63,208.73c-1.41.73-3.05,1.62-4.8,1.62s-3.13-.81-4.12-1.6c-.5-.39-.9-.78-1.2-1.07-.53-.41-.46-1-.25-.98.36.04.42.52.65.74.31.29.7.66,1.17,1.03.94.75,2.19,1.47,3.76,1.47s3.39-.92,4.51-1.55c.64-.35,1.44-.99,2.09-1.47.5-.37.48-.81.9-.76s.11.49-.47.99c-.58.51-1.49,1.18-2.23,1.56h0Z" style="fill: #202020;"/>
      <path d="M564.17,238.75c-.19,0-.38,0-.57,0h-.06c.49-1.53-.59-2.65-3.43-3.94-2.95-1.3-5.3-1.17-5.7,1.46-.03.14-.05.28-.06.42-.23.08-.45.18-.66.3-1.39.76-2.15,2.13-2.57,3.82-.42,1.69-.54,3.72-.66,6.02-.07,1.15-.55,2.71-1.03,4.36-4.83,3.45-11.55,4.94-17.25,1.05-.39-.61-.83-1.22-1.29-1.81-.29-.38-.59-.76-.88-1.13.51.01,1.01-.08,1.48-.28.47-.2.84-.58,1.03-1.06.35-.94,0-2.25-1.12-3.76-1.11-1.51-2.99-3.2-5.76-4.91-2.03-1.27-3.17-2.82-3.7-4.5-.54-1.69-.46-3.51-.06-5.3.79-3.45,2.82-6.81,4.11-8.92.35-.25.13.48-1.3,3.13-1.28,2.43-3.69,8.04-.4,12.42.09-3.12.83-6.3,2.08-9.27,1.82-4.13,5.62-11.28,5.92-16.98.16.11.69.48.93.61.7.41,1.22,1.02,1.9,1.56.89.75,2.02,1.14,3.18,1.11,1.33,0,2.36-.44,3.22-.93.94-.53,1.68-1.13,2.39-1.35,1.49-.47,2.69-1.3,3.36-2.27,1.16,4.59,3.87,11.2,5.6,14.43.92,1.71,2.76,5.35,3.55,9.74.5-.01,1.06.06,1.65.21,2.07-5.38-1.76-11.17-3.51-12.79-.71-.69-.75-.99-.39-.98,1.9,1.68,4.39,5.07,5.3,8.88.41,1.74.5,3.57.06,5.38.22.09.44.19.66.3,3.33,1.62,4.56,3.03,3.97,4.96h0Z" style="fill: #fff;"/>
      <path d="M540.43,224.21c-3.07.01-6.07,1.39-8.61,3.96-2.54,2.56-4.5,6.2-5.62,10.43l.34.21v.02c2.6,1.65,4.45,3.3,5.59,4.85,1.21,1.64,1.75,3.23,1.23,4.61-.27.7-.81,1.26-1.49,1.56l-.23.08c.41.54.81,1.09,1.18,1.66,5.22,3.47,11.28,2.19,15.84-.95.44-1.54.85-2.96.9-3.86.12-2.29.23-4.38.69-6.19.45-1.82,1.34-3.48,3.01-4.39.09-.06.19-.08.28-.13.03-.18.07-.35.12-.52-1.34-3.44-3.27-6.3-5.58-8.29-2.32-1.99-4.96-3.04-7.64-3.06h0ZM553.52,236.11v.03s-.01-.01-.01-.01v-.02s.01,0,.01,0Z" style="fill: #e6e6e6;"/>
      <path d="M547.27,200.84c.02,1.31-.39,2.58-1.19,3.62-.4-.18-.8-.34-1.2-.5l-.7-.25c.16-.19.47-.41.59-.7.17-.43.27-.88.28-1.34v-.06c.02-.44-.05-.88-.19-1.3-.11-.38-.32-.73-.6-1.02-.22-.24-.53-.38-.86-.39h-.04c-.31,0-.61.12-.83.33-.3.26-.53.59-.67.97-.17.43-.27.88-.28,1.34v.06c0,.26,0,.52.05.77-.63-.29-1.28-.51-1.96-.66-.03-.24-.05-.49-.06-.73v-.07c-.02-.85.14-1.69.49-2.47.29-.72.77-1.34,1.38-1.81.54-.44,1.22-.68,1.91-.68h.03c.69,0,1.28.2,1.89.64.63.46,1.12,1.08,1.42,1.79.35.76.52,1.51.54,2.39v.07s0,0,0,0ZM536.83,201.75c-.54.15-1.06.39-1.53.69.04-.27.04-.55.01-.83v-.04c-.03-.37-.12-.72-.27-1.06-.11-.3-.3-.56-.53-.78-.17-.17-.41-.26-.66-.25-.23.02-.43.13-.61.36-.19.25-.33.55-.39.86-.09.37-.11.75-.07,1.13v.04c.03.37.12.73.27,1.07.13.34.35.64.64.86l-.56.44-.43.31c-.38-.38-.68-.83-.88-1.33-.29-.66-.45-1.33-.5-2.11h0c-.05-.73.03-1.46.25-2.16.16-.61.48-1.16.92-1.61.37-.41.9-.65,1.46-.65.46,0,.87.15,1.3.5.49.4.86.91,1.1,1.5.29.66.44,1.33.49,2.11h0c.02.34.02.64-.01.94h0Z" style="fill: #fff;"/>
      <path d="M539.14,203.62c.06.19.36.16.54.25.15.08.28.25.44.25.17,0,.42-.06.44-.22.03-.21-.29-.35-.49-.43-.26-.1-.59-.15-.83-.02-.06.03-.12.1-.1.17h0ZM537.36,203.62c-.06.19-.36.16-.53.25-.15.08-.28.25-.45.25-.17,0-.42-.06-.44-.22-.03-.21.29-.35.49-.43.26-.1.6-.15.84-.02.06.03.11.1.09.17h0Z" style="fill: #202020;"/>
    </g>
    <text transform="translate(520.66 287.41)" style="font-family: HelveticaNeue-CondensedBold, &apos;Helvetica Neue&apos;; font-size: 18px; font-weight: 700;"><tspan x="0" y="0">Linux</tspan><tspan x="-31.99" y="21.6">Secret Se</tspan><tspan x="35.67" y="21.6" style="letter-spacing: .02em;">r</tspan><tspan x="41.98" y="21.6">vice</tspan></text>
  </g>
  <g>
    <g>
      <polygon points="725.45 193.66 763.18 188 763.18 221.59 725.45 221.59 725.45 193.66" style="fill: #90c300;"/>
      <polygon points="691.48 198.57 720.41 194.29 720.41 221.97 691.48 221.97 691.48 198.57" style="fill: #f8672c;"/>
      <polygon points="725.45 254.05 763.18 259.71 763.18 227 725.45 227 725.45 254.05" style="fill: #ffc400;"/>
      <polygon points="691.48 249.14 720.41 253.42 720.41 227 691.48 227 691.48 249.14" style="fill: #00b4f2;"/>
    </g>
    <text transform="translate(694.59 287.41)" style="font-family: HelveticaNeue-CondensedBold, &apos;Helvetica Neue&apos;; font-size: 18px; font-weight: 700;"><tspan x="0" y="0">Wind</tspan><tspan x="36" y="0" style="letter-spacing: 0em;">o</tspan><tspan x="44.82" y="0">ws</tspan><tspan x="-30.21" y="21.6">Credential Locker</tspan></text>
  </g>
  <g>
    <g id="Page-1">
      <g id="Dribbble-Light-Preview">
        <g id="icons">
          <path id="apple-_173_" data-name="apple-[#173]" d="M365.17,192.79c2.9-3.36,4.85-8.04,4.32-12.7-4.18.16-9.23,2.67-12.23,6.03-2.69,2.98-5.04,7.74-4.41,12.3,4.66.35,9.42-2.27,12.32-5.63M375.62,222.34c.12,12.04,11.02,16.04,11.14,16.09-.09.28-1.74,5.71-5.74,11.31-3.46,4.84-7.05,9.67-12.71,9.77-5.56.1-7.35-3.16-13.7-3.16s-8.34,3.05-13.6,3.26c-5.46.2-9.62-5.24-13.11-10.07-7.13-9.87-12.58-27.91-5.26-40.07,3.64-6.04,10.13-9.87,17.18-9.97,5.36-.1,10.42,3.46,13.7,3.46s9.43-4.28,15.9-3.65c2.71.11,10.31,1.05,15.18,7.89-.39.23-9.07,5.07-8.97,15.13" style="fill-rule: evenodd;"/>
        </g>
      </g>
    </g>
    <text transform="translate(337.8 287.41)" style="font-family: HelveticaNeue-CondensedBold, &apos;Helvetica Neue&apos;; font-size: 18px; font-weight: 700;"><tspan x="0" y="0">Mac</tspan><tspan x="-17.5" y="21.6">Keychain</tspan></text>
  </g>
  <g>
    <g>
      <path d="M198.65,202.82h-13.15c-2.17,0-3.94-1.77-3.94-3.94v-6.57c0-.73-.59-1.31-1.31-1.31s-1.31.59-1.31,1.31v6.57c0,3.62,2.95,6.57,6.57,6.57h11.83v51.28c0,2.18-1.77,3.94-3.94,3.94h-55.22c-2.17,0-3.94-1.77-3.94-3.94v-65.74c0-2.17,1.77-3.94,3.94-3.94h41.53l12.76,12.76c.51.51,1.35.51,1.86,0,.51-.51.51-1.35,0-1.86l-13.15-13.15c-.25-.25-.58-.39-.93-.39h-42.07c-3.62,0-6.57,2.95-6.57,6.57v65.74c0,3.62,2.95,6.57,6.57,6.57h55.22c3.62,0,6.57-2.95,6.57-6.57v-52.59c0-.73-.59-1.31-1.31-1.31Z"/>
      <text transform="translate(142.91 239.41)" style="font-family: Helvetica-Bold, Helvetica; font-size: 21px; font-weight: 700;"><tspan x="0" y="0">.env</tspan></text>
    </g>
    <text transform="translate(146.63 287.41)" style="font-family: HelveticaNeue-CondensedBold, &apos;Helvetica Neue&apos;; font-size: 18px; font-weight: 700;"><tspan x="0" y="0">Local</tspan><tspan x="-8.99" y="21.6">.env file</tspan></text>
  </g>
  <g>
    <g>
      <path d="M98.93,375.74c3.02-.37,9.69-1.16,10.88.37,1.19,1.5-1.33,7.82-2.46,10.62-.34.85.4,1.19,1.16.54,4.97-4.19,6.27-12.94,5.26-14.22-1.02-1.25-9.75-2.32-15.06,1.42-.82.59-.68,1.39.23,1.27h0Z" style="fill: #f90;"/>
      <path d="M71.52,391.06c11.61,0,25.12-3.65,34.42-10.54,1.53-1.13.2-2.86-1.36-2.15-10.43,4.42-21.76,6.57-32.07,6.57-15.29,0-30.07-4.22-42.05-11.19-1.05-.62-1.84.45-.96,1.25,11.08,10.03,25.74,16.06,42.02,16.06h0Z" style="fill: #f90;"/>
      <path d="M53.07,358.63c0,1.05.11,1.9.31,2.52.25.7.55,1.38.9,2.04.14.23.2.45.2.65,0,.28-.17.57-.54.85l-1.78,1.19c-.25.17-.51.25-.73.25-.28,0-.57-.14-.85-.4-.38-.41-.72-.86-1.02-1.33-.32-.54-.61-1.1-.88-1.67-2.2,2.61-4.97,3.91-8.31,3.91-2.37,0-4.27-.68-5.65-2.04-1.38-1.36-2.09-3.17-2.09-5.44,0-2.41.85-4.36,2.57-5.83,1.72-1.47,4.01-2.21,6.92-2.21.96,0,1.95.08,3,.23,1.05.14,2.12.37,3.25.62v-2.07c0-2.15-.45-3.65-1.33-4.53-.9-.88-2.43-1.3-4.61-1.3-.99,0-2.01.11-3.05.37-1.04.25-2.06.57-3.05.96-.32.14-.65.27-.99.37-.2.06-.34.08-.45.08-.4,0-.59-.28-.59-.88v-1.39c0-.45.06-.79.2-.99.14-.2.4-.4.79-.6.99-.51,2.18-.93,3.56-1.27,1.38-.37,2.86-.54,4.41-.54,3.36,0,5.82.77,7.4,2.29,1.55,1.53,2.35,3.85,2.35,6.97v9.18h.06ZM41.59,362.93c.93,0,1.89-.17,2.91-.51,1.02-.34,1.92-.96,2.68-1.81.45-.54.79-1.13.96-1.81s.28-1.5.28-2.46v-1.19c-.86-.21-1.72-.37-2.6-.48-.88-.11-1.77-.17-2.66-.17-1.89,0-3.28.37-4.21,1.13-.93.77-1.38,1.84-1.38,3.26,0,1.33.34,2.32,1.05,3,.68.71,1.67,1.05,2.97,1.05h0ZM64.29,365.99c-.51,0-.85-.08-1.07-.28-.23-.17-.42-.57-.59-1.1l-6.64-21.89c-.17-.57-.25-.93-.25-1.13,0-.45.23-.71.68-.71h2.77c.54,0,.9.08,1.1.28.23.17.4.57.57,1.1l4.75,18.75,4.41-18.75c.14-.57.31-.93.54-1.1s.62-.28,1.13-.28h2.26c.54,0,.9.08,1.13.28.23.17.42.57.54,1.1l4.46,18.98,4.89-18.98c.17-.57.37-.93.56-1.1.23-.17.59-.28,1.1-.28h2.63c.45,0,.71.23.71.71,0,.14-.03.28-.06.45-.04.24-.11.48-.2.71l-6.81,21.89c-.17.57-.37.93-.59,1.1-.23.17-.59.28-1.07.28h-2.43c-.54,0-.9-.09-1.13-.28s-.42-.57-.54-1.13l-4.38-18.27-4.35,18.24c-.14.57-.31.93-.54,1.13-.23.2-.62.28-1.13.28h-2.43ZM100.6,366.76c-1.47,0-2.94-.17-4.35-.51-1.41-.34-2.51-.71-3.25-1.13-.45-.25-.76-.54-.88-.79-.11-.25-.17-.52-.17-.79v-1.44c0-.59.23-.88.65-.88.17,0,.34.03.51.08.17.06.42.17.71.28,1,.44,2.04.77,3.11.99,1.13.23,2.23.34,3.36.34,1.78,0,3.17-.31,4.13-.93.96-.62,1.47-1.53,1.47-2.69,0-.79-.25-1.44-.76-1.98s-1.47-1.02-2.85-1.47l-4.1-1.27c-2.06-.65-3.59-1.61-4.52-2.89-.93-1.25-1.41-2.63-1.41-4.11,0-1.19.25-2.24.76-3.14.51-.91,1.19-1.7,2.03-2.32.85-.65,1.81-1.13,2.94-1.47,1.13-.34,2.32-.48,3.56-.48.62,0,1.27.03,1.89.11.65.08,1.24.2,1.84.31.57.14,1.1.28,1.61.45.51.17.9.34,1.19.51.4.23.68.45.85.71.17.23.25.54.25.93v1.33c0,.6-.23.91-.65.91-.23,0-.59-.11-1.07-.34-1.61-.74-3.42-1.1-5.43-1.1-1.61,0-2.88.25-3.76.79-.88.54-1.33,1.36-1.33,2.52,0,.79.28,1.47.85,2.01s1.61,1.08,3.11,1.56l4.01,1.27c2.03.65,3.5,1.56,4.38,2.72s1.3,2.49,1.3,3.96c0,1.22-.25,2.32-.73,3.29-.51.96-1.19,1.81-2.06,2.49-.88.71-1.92,1.22-3.14,1.59-1.27.4-2.6.6-4.04.6h0Z" style="fill: #252f3e;"/>
    </g>
    <g>
      <path d="M43.72,411.78l3.4,12.85h-2.7l-.59-2.72h-3.42l-.59,2.72h-2.7l3.4-12.85h3.2ZM43.37,419.79l-1.24-5.78h-.04l-1.24,5.78h2.52Z"/>
      <path d="M49.39,411.78l1.42,9.5h.04l1.51-9.5h2.48l1.51,9.5h.04l1.42-9.5h2.48l-2.34,12.85h-2.9l-1.44-9.32h-.04l-1.44,9.32h-2.9l-2.34-12.85h2.48Z"/>
      <path d="M63.43,421c0,.3.02.57.07.82.05.25.14.45.27.62.13.17.31.3.53.4.22.1.5.14.84.14.4,0,.75-.13,1.07-.39.32-.26.48-.66.48-1.2,0-.29-.04-.54-.12-.75s-.21-.4-.39-.57c-.18-.17-.42-.32-.71-.46s-.66-.28-1.09-.42c-.58-.19-1.07-.4-1.49-.63-.42-.23-.77-.5-1.05-.8-.28-.31-.49-.66-.62-1.06-.13-.4-.2-.87-.2-1.4,0-1.27.35-2.22,1.06-2.84.71-.62,1.68-.94,2.92-.94.58,0,1.11.06,1.59.19s.91.33,1.26.61c.35.28.63.64.83,1.08.2.44.3.96.3,1.58v.36h-2.48c0-.61-.11-1.08-.32-1.41-.22-.33-.58-.49-1.08-.49-.29,0-.53.04-.72.13s-.34.19-.46.33c-.11.14-.19.3-.23.48s-.06.37-.06.56c0,.4.08.73.25,1,.17.27.53.52,1.08.75l2,.86c.49.22.89.44,1.21.67.31.23.56.49.75.76.19.27.31.57.39.89.07.32.11.68.11,1.08,0,1.36-.39,2.34-1.18,2.96-.79.62-1.88.93-3.29.93s-2.51-.32-3.14-.95c-.63-.64-.94-1.55-.94-2.74v-.52h2.59v.38Z"/>
      <path d="M77.09,421c0,.3.02.57.07.82.05.25.14.45.27.62.13.17.31.3.53.4.22.1.5.14.84.14.4,0,.75-.13,1.07-.39.32-.26.48-.66.48-1.2,0-.29-.04-.54-.12-.75s-.21-.4-.39-.57c-.18-.17-.42-.32-.71-.46s-.66-.28-1.09-.42c-.58-.19-1.07-.4-1.49-.63-.42-.23-.77-.5-1.05-.8-.28-.31-.49-.66-.62-1.06-.13-.4-.2-.87-.2-1.4,0-1.27.35-2.22,1.06-2.84.71-.62,1.68-.94,2.92-.94.58,0,1.11.06,1.59.19s.91.33,1.26.61c.35.28.63.64.83,1.08.2.44.3.96.3,1.58v.36h-2.48c0-.61-.11-1.08-.32-1.41-.22-.33-.58-.49-1.08-.49-.29,0-.53.04-.72.13s-.34.19-.46.33c-.11.14-.19.3-.23.48s-.06.37-.06.56c0,.4.08.73.25,1,.17.27.53.52,1.08.75l2,.86c.49.22.89.44,1.21.67.31.23.56.49.75.76.19.27.31.57.39.89.07.32.11.68.11,1.08,0,1.36-.39,2.34-1.18,2.96-.79.62-1.88.93-3.29.93s-2.51-.32-3.14-.95c-.63-.64-.94-1.55-.94-2.74v-.52h2.59v.38Z"/>
      <path d="M86.43,421c0,.3.02.57.07.82.05.25.14.45.27.62.13.17.31.3.53.4.22.1.5.14.84.14.4,0,.75-.13,1.07-.39.32-.26.48-.66.48-1.2,0-.29-.04-.54-.12-.75s-.21-.4-.39-.57c-.18-.17-.42-.32-.71-.46s-.66-.28-1.09-.42c-.58-.19-1.07-.4-1.49-.63-.42-.23-.77-.5-1.05-.8-.28-.31-.49-.66-.62-1.06-.13-.4-.2-.87-.2-1.4,0-1.27.35-2.22,1.06-2.84.71-.62,1.68-.94,2.92-.94.58,0,1.11.06,1.59.19s.91.33,1.26.61c.35.28.63.64.83,1.08.2.44.3.96.3,1.58v.36h-2.48c0-.61-.11-1.08-.32-1.41-.22-.33-.58-.49-1.08-.49-.29,0-.53.04-.72.13s-.34.19-.46.33c-.11.14-.19.3-.23.48s-.06.37-.06.56c0,.4.08.73.25,1,.17.27.53.52,1.08.75l2,.86c.49.22.89.44,1.21.67.31.23.56.49.75.76.19.27.31.57.39.89.07.32.11.68.11,1.08,0,1.36-.39,2.34-1.18,2.96-.79.62-1.88.93-3.29.93s-2.51-.32-3.14-.95c-.63-.64-.94-1.55-.94-2.74v-.52h2.59v.38Z"/>
      <path d="M97.59,411.78l1.84,9.07h.04l1.85-9.07h3.83v12.85h-2.38v-10.26h-.04l-2.29,10.26h-2.02l-2.29-10.26h-.04v10.26h-2.38v-12.85h3.85Z"/>
      <path d="M19.08,433.38c.66,0,1.21.11,1.67.33.45.22.81.51,1.09.87.28.36.47.77.59,1.23.12.46.18.93.18,1.41,0,.66-.1,1.24-.3,1.73-.2.49-.47.89-.83,1.21-.35.31-.78.55-1.29.7-.5.16-1.06.23-1.67.23h-1.39v5.13h-2.59v-12.85h4.54ZM18.29,439.19c.52,0,.93-.16,1.25-.47.32-.31.48-.8.48-1.46s-.14-1.14-.41-1.48c-.28-.34-.74-.5-1.39-.5h-1.08v3.91h1.15Z"/>
      <path d="M23.48,439.28c0-.56.09-1.04.27-1.41.18-.38.42-.68.73-.92s.67-.4,1.08-.5c.41-.1.85-.15,1.32-.15.74,0,1.34.07,1.8.22.46.14.81.35,1.06.61.25.26.42.58.51.95s.14.76.14,1.2v5.09c0,.46.02.81.06,1.06.04.25.12.52.24.81h-2.38c-.08-.16-.15-.32-.19-.5s-.08-.34-.12-.51h-.04c-.29.5-.62.83-1,.98-.38.15-.87.23-1.47.23-.43,0-.8-.08-1.1-.23-.3-.15-.54-.36-.72-.62-.18-.26-.31-.56-.4-.89s-.13-.66-.13-.98c0-.46.05-.85.14-1.18s.24-.61.44-.85c.2-.23.45-.43.76-.58.31-.16.67-.29,1.11-.41l1.4-.38c.37-.1.63-.23.77-.4s.22-.41.22-.74c0-.37-.09-.66-.26-.87-.17-.21-.47-.31-.89-.31-.38,0-.67.11-.86.34-.19.23-.29.53-.29.92v.27h-2.23v-.23ZM27.47,441.71c-.19.08-.37.13-.52.17-.5.11-.86.29-1.08.54-.22.25-.32.59-.32,1.03,0,.37.07.69.22.95s.38.4.72.4c.17,0,.34-.03.52-.08.18-.05.34-.14.5-.26.15-.12.27-.28.37-.47.1-.19.14-.42.14-.68v-1.91c-.17.13-.35.24-.54.31Z"/>
      <path d="M34.53,436.55v1.3h.04c.25-.47.56-.84.92-1.12.36-.28.8-.42,1.31-.42.07,0,.15,0,.22,0,.08,0,.15.01.23.03v2.38c-.13-.01-.26-.02-.39-.03-.13,0-.26,0-.39,0-.22,0-.43.03-.65.09-.22.06-.41.16-.59.3-.18.14-.32.32-.43.54-.11.22-.16.49-.16.82v5.81h-2.48v-9.68h2.38Z"/>
      <path d="M38.13,439.28c0-.56.09-1.04.27-1.41.18-.38.42-.68.73-.92s.67-.4,1.08-.5c.41-.1.85-.15,1.32-.15.74,0,1.34.07,1.8.22.46.14.81.35,1.06.61.25.26.42.58.51.95s.14.76.14,1.2v5.09c0,.46.02.81.06,1.06.04.25.12.52.24.81h-2.38c-.08-.16-.15-.32-.19-.5s-.08-.34-.12-.51h-.04c-.29.5-.62.83-1,.98-.38.15-.87.23-1.47.23-.43,0-.8-.08-1.1-.23-.3-.15-.54-.36-.72-.62-.18-.26-.31-.56-.4-.89s-.13-.66-.13-.98c0-.46.05-.85.14-1.18s.24-.61.44-.85c.2-.23.45-.43.76-.58.31-.16.67-.29,1.11-.41l1.4-.38c.37-.1.63-.23.77-.4s.22-.41.22-.74c0-.37-.09-.66-.26-.87-.17-.21-.47-.31-.89-.31-.38,0-.67.11-.86.34-.19.23-.29.53-.29.92v.27h-2.23v-.23ZM42.12,441.71c-.19.08-.37.13-.52.17-.5.11-.86.29-1.08.54-.22.25-.32.59-.32,1.03,0,.37.07.69.22.95s.38.4.72.4c.17,0,.34-.03.52-.08.18-.05.34-.14.5-.26.15-.12.27-.28.37-.47.1-.19.14-.42.14-.68v-1.91c-.17.13-.35.24-.54.31Z"/>
      <path d="M49.18,436.55v.99h.04c.31-.44.66-.76,1.05-.95.39-.19.85-.29,1.4-.29.58,0,1.06.13,1.45.4.39.26.65.65.78,1.15h.04c.19-.52.5-.9.93-1.16.43-.26.93-.39,1.52-.39.83,0,1.44.25,1.83.75.39.5.58,1.21.58,2.15v7.04h-2.48v-6.77c0-.41-.08-.72-.23-.94s-.4-.32-.75-.32c-.4,0-.71.13-.94.4-.23.26-.35.68-.35,1.26v6.37h-2.48v-6.77c0-.41-.08-.72-.23-.94-.15-.22-.4-.32-.75-.32-.4,0-.71.13-.94.4-.23.26-.35.68-.35,1.26v6.37h-2.48v-9.68h2.38Z"/>
      <path d="M62.57,442.54c0,.29.02.57.06.84.04.27.11.51.21.72.1.21.22.38.38.5.16.13.35.19.58.19.42,0,.73-.15.92-.45.19-.3.32-.76.4-1.37h2.23c-.05,1.13-.35,1.99-.9,2.57-.55.59-1.42.88-2.61.88-.9,0-1.6-.15-2.11-.45s-.88-.7-1.12-1.19c-.24-.49-.39-1.04-.44-1.66-.05-.61-.08-1.22-.08-1.84,0-.65.05-1.27.14-1.87.09-.6.27-1.13.54-1.6s.66-.84,1.16-1.12c.5-.28,1.18-.41,2.02-.41.72,0,1.31.12,1.77.35.46.23.83.56,1.09.99.26.43.44.94.54,1.55.1.61.14,1.28.14,2.02v.56h-4.91v.77ZM65.04,439.31c-.04-.28-.1-.52-.19-.72-.09-.2-.22-.35-.38-.45-.16-.1-.37-.15-.62-.15s-.46.06-.62.17-.29.26-.39.45c-.1.19-.17.39-.21.62-.04.23-.06.46-.06.68v.38h2.54c-.01-.37-.04-.7-.07-.98Z"/>
      <path d="M71.81,433.78v2.77h1.44v1.69h-1.44v5.24c0,.38.06.66.17.82.11.16.35.24.71.24.1,0,.19,0,.29,0,.1,0,.19-.01.27-.03v1.73c-.28,0-.54,0-.8.03-.26.02-.53.03-.82.03-.48,0-.87-.03-1.18-.1-.31-.07-.54-.2-.7-.4s-.27-.46-.33-.78c-.06-.32-.09-.73-.09-1.22v-5.54h-1.26v-1.69h1.26v-2.77h2.48Z"/>
      <path d="M76.23,442.54c0,.29.02.57.06.84.04.27.11.51.21.72.1.21.22.38.38.5.16.13.35.19.58.19.42,0,.73-.15.92-.45.19-.3.32-.76.4-1.37h2.23c-.05,1.13-.35,1.99-.9,2.57-.55.59-1.42.88-2.61.88-.9,0-1.6-.15-2.11-.45s-.88-.7-1.12-1.19c-.24-.49-.39-1.04-.44-1.66-.05-.61-.08-1.22-.08-1.84,0-.65.05-1.27.14-1.87.09-.6.27-1.13.54-1.6s.66-.84,1.16-1.12c.5-.28,1.18-.41,2.02-.41.72,0,1.31.12,1.77.35.46.23.83.56,1.09.99.26.43.44.94.54,1.55.1.61.14,1.28.14,2.02v.56h-4.91v.77ZM78.7,439.31c-.04-.28-.1-.52-.19-.72-.09-.2-.22-.35-.38-.45-.16-.1-.37-.15-.62-.15s-.46.06-.62.17-.29.26-.39.45c-.1.19-.17.39-.21.62-.04.23-.06.46-.06.68v.38h2.54c-.01-.37-.04-.7-.07-.98Z"/>
      <path d="M84.82,436.55v1.3h.04c.25-.47.56-.84.92-1.12.36-.28.8-.42,1.31-.42.07,0,.15,0,.22,0,.08,0,.15.01.23.03v2.38c-.13-.01-.26-.02-.39-.03-.13,0-.26,0-.39,0-.22,0-.43.03-.65.09-.22.06-.41.16-.59.3-.18.14-.32.32-.43.54-.11.22-.16.49-.16.82v5.81h-2.48v-9.68h2.38Z"/>
      <path d="M94.92,442.6c0,.3.02.57.07.82.05.25.14.45.27.62.13.17.31.3.53.4.22.1.5.14.84.14.4,0,.75-.13,1.07-.39.32-.26.48-.66.48-1.2,0-.29-.04-.54-.12-.75s-.21-.4-.39-.57c-.18-.17-.42-.32-.71-.46-.29-.14-.66-.28-1.09-.42-.58-.19-1.07-.4-1.49-.63-.42-.23-.77-.5-1.05-.8-.28-.31-.49-.66-.62-1.06-.13-.4-.2-.87-.2-1.39,0-1.27.35-2.22,1.06-2.84.71-.62,1.68-.94,2.92-.94.58,0,1.11.06,1.59.19s.91.33,1.26.61c.35.28.63.64.83,1.08.2.44.3.96.3,1.58v.36h-2.48c0-.61-.11-1.08-.32-1.41-.22-.33-.58-.5-1.08-.5-.29,0-.53.04-.72.13s-.34.2-.46.33-.19.3-.23.48c-.04.18-.06.37-.06.56,0,.4.08.73.25,1,.17.27.53.52,1.08.75l2,.86c.49.22.89.44,1.21.67.31.23.56.49.75.76.19.27.31.57.39.89.07.32.11.68.11,1.08,0,1.36-.39,2.34-1.18,2.96-.79.62-1.88.93-3.29.93s-2.51-.32-3.14-.95c-.63-.64-.94-1.55-.94-2.74v-.52h2.59v.38Z"/>
      <path d="M105.12,433.78v2.77h1.44v1.69h-1.44v5.24c0,.38.06.66.17.82.11.16.35.24.71.24.1,0,.19,0,.29,0,.1,0,.19-.01.27-.03v1.73c-.28,0-.54,0-.8.03-.26.02-.53.03-.82.03-.48,0-.87-.03-1.18-.1-.31-.07-.54-.2-.7-.4s-.27-.46-.33-.78c-.06-.32-.09-.73-.09-1.22v-5.54h-1.26v-1.69h1.26v-2.77h2.48Z"/>
      <path d="M107.3,439.19c.13-.64.35-1.17.65-1.59.3-.43.69-.75,1.18-.97.49-.22,1.08-.33,1.79-.33.74-.01,1.36.09,1.85.3.49.21.88.53,1.17.96.29.43.49.97.61,1.6.12.64.18,1.38.18,2.23s-.07,1.56-.2,2.2c-.13.64-.35,1.17-.65,1.59-.3.43-.69.74-1.18.95-.49.2-1.08.31-1.79.31-.74.01-1.36-.08-1.85-.28s-.88-.51-1.17-.94c-.29-.43-.49-.96-.61-1.6-.12-.64-.18-1.38-.18-2.22s.07-1.56.2-2.2ZM109.62,442.76c.02.42.08.78.17,1.08.09.3.23.53.41.7.18.17.42.25.72.25.5,0,.85-.26,1.04-.79.19-.53.29-1.4.29-2.61s-.1-2.08-.29-2.61-.54-.79-1.04-.79c-.3,0-.54.08-.72.25-.18.17-.31.4-.41.7-.09.3-.15.66-.17,1.08s-.04.88-.04,1.37.01.95.04,1.37Z"/>
      <path d="M118.44,436.55v1.3h.04c.25-.47.56-.84.92-1.12.36-.28.8-.42,1.31-.42.07,0,.15,0,.22,0,.08,0,.15.01.23.03v2.38c-.13-.01-.26-.02-.39-.03-.13,0-.26,0-.39,0-.22,0-.43.03-.65.09-.22.06-.41.16-.59.3-.18.14-.32.32-.43.54-.11.22-.16.49-.16.82v5.81h-2.48v-9.68h2.38Z"/>
      <path d="M124.18,442.54c0,.29.02.57.06.84.04.27.11.51.21.72.1.21.22.38.38.5.16.13.35.19.58.19.42,0,.73-.15.92-.45.19-.3.32-.76.4-1.37h2.23c-.05,1.13-.35,1.99-.9,2.57-.55.59-1.42.88-2.61.88-.9,0-1.6-.15-2.11-.45s-.88-.7-1.12-1.19c-.24-.49-.39-1.04-.44-1.66-.05-.61-.08-1.22-.08-1.84,0-.65.05-1.27.14-1.87.09-.6.27-1.13.54-1.6s.66-.84,1.16-1.12c.5-.28,1.18-.41,2.02-.41.72,0,1.31.12,1.77.35.46.23.83.56,1.09.99.26.43.44.94.54,1.55.1.61.14,1.28.14,2.02v.56h-4.91v.77ZM126.65,439.31c-.04-.28-.1-.52-.19-.72-.09-.2-.22-.35-.38-.45-.16-.1-.37-.15-.62-.15s-.46.06-.62.17-.29.26-.39.45c-.1.19-.17.39-.21.62-.04.23-.06.46-.06.68v.38h2.54c-.01-.37-.04-.7-.07-.98Z"/>
    </g>
  </g>
  <g>
    <path d="M229.14,393.82c10.48-1.85,19.14-3.38,19.24-3.41l.18-.04-9.9-11.77c-5.44-6.47-9.9-11.8-9.9-11.83,0-.06,10.22-28.2,10.28-28.3.02-.03,6.97,11.97,16.86,29.1,9.25,16.04,16.88,29.26,16.95,29.39l.13.23h-31.45s-31.45,0-31.45,0l19.06-3.37h0ZM191.39,390.23s4.66-8.11,10.36-17.99l10.36-17.96,12.08-10.13c6.64-5.57,12.09-10.14,12.12-10.15.02,0-.07.21-.19.49-.13.28-6.03,12.93-13.11,28.13l-12.88,27.62h-9.37c-5.15.02-9.37,0-9.37,0h0Z" style="fill: #0089d6;"/>
    <text transform="translate(211.69 424.63)" style="font-family: HelveticaNeue-CondensedBold, &apos;Helvetica Neue&apos;; font-size: 18px; font-weight: 700;"><tspan x="0" y="0">Azure</tspan><tspan x="-12.48" y="21.6">Key</tspan><tspan x="13.51" y="21.6" style="letter-spacing: -.04em;"> </tspan><tspan x="17.16" y="21.6" style="letter-spacing: -.02em;">V</tspan><tspan x="26.18" y="21.6">ault</tspan></text>
  </g>
  <g>
    <g>
      <path d="M405.52,351.14l10.4-8.27-1.83-2.28c-8.44-7.36-20.05-9.88-30.78-6.71-10.69,3.23-18.97,11.73-21.92,22.5-.17.62,1.72-.54,2.55-.31l14.37-2.36s.7-.68,1.11-1.13c6.39-6.98,17.22-7.89,24.6-1.95l1.5.5h0Z" style="fill: #ea4335;"/>
      <path d="M423.83,356.23c-1.66-6.05-5.05-11.49-9.75-15.64l-10.08,10.03c4.25,3.45,6.67,8.66,6.57,14.13v1.78c4.96,0,8.98,3.99,8.98,8.93s-4.02,8.92-8.98,8.92l-17.95-.02-1.79.19v13.81l1.79.29h17.95c10.27.1,19.4-6.53,22.48-16.32,3.05-9.78-.71-20.41-9.22-26.11h0Z" style="fill: #4285f4;"/>
      <path d="M374.65,398.65h17.96v-14.29h-17.96c-1.28,0-2.54-.36-3.7-.89l-2.52.77-7.23,7.15-.63,2.46c4.05,3.09,9,4.77,14.09,4.79h0Z" style="fill: #34a853;"/>
      <path d="M374.65,352.22c-9.95.04-18.78,6.39-21.99,15.8-3.18,9.41,0,19.8,7.9,25.83l10.41-10.38c-4.49-2-6.51-7.27-4.51-11.77,1.26-2.82,3.88-4.78,6.93-5.2,3.94-.57,7.79,1.53,9.44,5.16l10.41-10.35c-4.45-5.77-11.33-9.13-18.61-9.1h0Z" style="fill: #fbbc05;"/>
    </g>
    <text transform="translate(345.83 424.63)" style="font-family: HelveticaNeue-CondensedBold, &apos;Helvetica Neue&apos;; font-size: 18px; font-weight: 700;"><tspan x="0" y="0">Google Cloud</tspan><tspan x="-9.53" y="21.6">Secret Manager</tspan></text>
  </g>
  <g>
    <g>
      <path d="M566.48,362.52h-26.18v5.88h26.18v-5.88Z" style="fill: #ed6b1e;"/>
      <path d="M579.53,341.08h-17.3l4.18,5.95,12.66,3.86c2.35.72,3.85,2.94,3.79,5.23v18.96c0,2.35-1.51,4.51-3.79,5.23l-12.6,3.86-4.24,5.95h17.3c7.24,0,13.05-5.88,13.05-13.08v-22.88c.03-7.19-5.78-13.05-12.97-13.08-.03,0-.06,0-.08,0ZM527.18,341.08h17.3l-4.18,5.95-12.6,3.86c-2.34.72-3.85,2.94-3.78,5.23v18.96c0,2.35,1.5,4.51,3.79,5.23l12.6,3.86,4.18,5.95h-17.3c-7.21-.03-13.04-5.87-13.05-13.08v-22.88c.01-7.21,5.85-13.05,13.05-13.08Z" style="fill: #ed6b1e;"/>
    </g>
    <text transform="translate(503.9 424.63)" style="font-family: HelveticaNeue-CondensedBold, &apos;Helvetica Neue&apos;; font-size: 18px; font-weight: 700;"><tspan x="0" y="0">Alibaba Cloud</tspan><tspan x="-29.34" y="21.6">KMS Secrets Manager</tspan></text>
  </g>
  <g>
    <path d="M684.12,336.68l29.71,57.83,29.92-57.83s-59.64,0-59.64,0ZM709.2,359.64h-4.74v-4.73h4.74v4.73ZM709.2,352.55h-4.74v-4.74h4.74v4.74ZM716.31,366.74h-4.74v-4.74h4.74v4.74ZM716.31,359.64h-4.74v-4.73h4.74v4.73ZM716.31,352.55h-4.74v-4.74h4.74v4.74ZM723.36,359.64h-4.74v-4.73h4.74v4.73ZM718.64,352.55v-4.74h4.74v4.74h-4.74Z" style="fill: #ffcf25;"/>
    <text transform="translate(677.96 424.63)" style="font-family: HelveticaNeue-CondensedBold, &apos;Helvetica Neue&apos;; font-size: 18px; font-weight: 700;"><tspan x="0" y="0">Hashicorp</tspan><tspan x="17.81" y="21.6" style="letter-spacing: -.02em;">V</tspan><tspan x="26.83" y="21.6">ault</tspan></text>
  </g>
  <g>
    <g id="Page-1-2" data-name="Page-1">
      <g id="Dribbble-Light-Preview-2" data-name="Dribbble-Light-Preview">
        <g id="icons-2" data-name="icons">
          <path id="github-_142_" data-name="github-[#142]" d="M874.52,332.58c18.24,0,33.02,15.16,33.02,33.86,0,14.96-9.45,27.64-22.56,32.12-1.67.33-2.27-.72-2.27-1.63,0-1.12.04-4.76.04-9.29,0-3.16-1.06-5.22-2.24-6.27,7.35-.84,15.08-3.7,15.08-16.71,0-3.7-1.28-6.72-3.4-9.09.34-.85,1.48-4.3-.32-8.96,0,0-2.77-.91-9.07,3.47-2.64-.75-5.46-1.13-8.27-1.14-2.81.01-5.63.39-8.27,1.14-6.31-4.38-9.08-3.47-9.08-3.47-1.79,4.66-.66,8.11-.32,8.96-2.11,2.37-3.4,5.39-3.4,9.09,0,12.97,7.71,15.88,15.04,16.73-.94.84-1.8,2.34-2.1,4.53-1.88.87-6.66,2.36-9.61-2.81,0,0-1.75-3.25-5.06-3.49,0,0-3.22-.04-.22,2.06,0,0,2.16,1.04,3.67,4.95,0,0,1.94,6.04,11.12,4,.02,2.83.05,5.5.05,6.3,0,.89-.61,1.94-2.26,1.63-13.12-4.47-22.58-17.17-22.58-32.13,0-18.7,14.79-33.86,33.02-33.86" style="fill-rule: evenodd;"/>
        </g>
      </g>
    </g>
    <text transform="translate(851.19 424.63)" style="font-family: HelveticaNeue-CondensedBold, &apos;Helvetica Neue&apos;; font-size: 18px; font-weight: 700;"><tspan x="0" y="0">Github</tspan><tspan x="-32.47" y="21.6">Actions Secrets</tspan></text>
  </g>
  <g>
    <g>
      <polyline points="442.37 16 499.38 16 499.38 16 485.1 1.77" style="fill: none; stroke: #f78f08; stroke-miterlimit: 333.33; stroke-width: 5px;"/>
      <rect x="418.64" y="30.28" width="104.47" height="75.96" style="fill: none; stroke: #f78f08; stroke-miterlimit: 333.33; stroke-width: 5px;"/>
      <polyline points="418.64 30.28 470.87 82.51 523.11 30.28" style="fill: none; stroke: #f78f08; stroke-miterlimit: 333.33; stroke-width: 5px;"/>
      <line x1="456.65" y1="68.23" x2="418.64" y2="106.24" style="fill: none; stroke: #f78f08; stroke-miterlimit: 333.33; stroke-width: 5px;"/>
      <line x1="523.11" y1="106.24" x2="485.1" y2="68.23" style="fill: none; stroke: #f78f08; stroke-miterlimit: 333.33; stroke-width: 5px;"/>
      <rect x="418.64" y="30.28" width="104.47" height="75.96" style="fill: none; stroke: #f78f08; stroke-miterlimit: 333.33; stroke-width: 5px;"/>
    </g>
    <text transform="translate(424.24 132.69)" style="filter: url(#outer-glow-1); font-family: HelveticaNeue-CondensedBold, &apos;Helvetica Neue&apos;; font-size: 24px; font-weight: 700;"><tspan x="0" y="0">enveloper</tspan></text>
  </g>
</svg>